Coordinates
version=1
nRows=14
nColumns=24
inDegrees=yes

Units are S.I. units (second, meters, Newtons, ...)
Angles are in degrees.

endheader
time	pelvis_tilt	pelvis_list	pelvis_rotation	pelvis_tx	pelvis_ty	pelvis_tz	hip_flexion_r	hip_adduction_r	hip_rotation_r	knee_angle_r	ankle_angle_r	subtalar_angle_r	mtp_angle_r	hip_flexion_l	hip_adduction_l	hip_rotation_l	knee_angle_l	ankle_angle_l	subtalar_angle_l	mtp_angle_l	lumbar_extension	lumbar_bending	lumbar_rotation
      0.69016667	      2.99848874	      0.58085720	      1.03529097	     -0.44793852	      1.02433843	      0.27658460	      4.94501649	      4.64772592	      1.62993939	    -14.17811741	      4.78377232	    -17.23567121	      6.69484344	     12.73278197	     -1.75540041	     -5.79528357	    -66.95706211	      0.72452165	    -15.42426166	      3.13706625	     -5.54789425	     -0.43654814	      3.00225493
      0.69433333	      2.96635194	      0.72524210	      0.85063681	     -0.44281338	      1.02503437	      0.27688268	      4.51371444	      4.49556730	      1.75057884	    -13.88886448	      4.93002700	    -17.06986204	      6.69530068	     13.27484323	     -1.60629218	     -5.93434736	    -66.59938645	      0.92761535	    -15.60460767	      2.98713432	     -5.56239417	     -0.60057608	      3.44588367
      0.69850000	      2.91093944	      0.87493025	      0.66455735	     -0.43767572	      1.02565522	      0.27716469	      4.11507156	      4.33218011	      1.85566489	    -13.61282977	      5.05355343	    -16.89921960	      6.69797283	     13.82819259	     -1.45338827	     -6.07644656	    -66.18005641	      1.17816075	    -15.69708001	      2.82722173	     -5.52978246	     -0.74892589	      3.76793159
      0.70266667	      2.87047394	      0.98931185	      0.51734111	     -0.43252357	      1.02626066	      0.27738765	      3.67053665	      4.20484748	      1.94622279	    -13.27376739	      5.13527917	    -16.78434700	      6.70070711	     14.36344451	     -1.33138590	     -6.16686819	    -65.71765036	      1.43294057	    -15.74605752	      2.80784067	     -5.51027133	     -0.86597860	      3.83392436
      0.70683333	      2.86579271	      1.15053536	      0.28983611	     -0.42740961	      1.02688151	      0.27768881	      3.22942709	      4.02098183	      2.05769814	    -13.01460757	      5.27590997	    -16.55935917	      6.70903166	     14.82015648	     -1.18002314	     -6.35558956	    -65.15652922	      1.68179189	    -15.72316718	      2.68857485	     -5.55923581	     -1.03878287	      4.33073760
      0.71100000	      2.83118871	      1.27423153	      0.09954703	     -0.42226247	      1.02740811	      0.27792545	      2.80047757	      3.87395709	      2.14687795	    -12.71421193	      5.39006130	    -16.38208647	      6.71895871	     15.30808501	     -1.05955411	     -6.49114004	    -64.56094844	      1.93660026	    -15.65252419	      2.59057617	     -5.55044645	     -1.15916564	      4.62176423
      0.71516667	      2.78431412	      1.40761638	     -0.09818152	     -0.41711741	      1.02788948	      0.27814394	      2.39086795	      3.71194896	      2.23520357	    -12.42096911	      5.46042572	    -16.21948486	      6.72625443	     15.78894648	     -0.92455170	     -6.62733948	    -63.89449775	      2.18562129	    -15.56329182	      2.54449809	     -5.52547525	     -1.28598030	      4.81478841
      0.71933333	      2.76099738	      1.52176356	     -0.29015494	     -0.41196782	      1.02835390	      0.27835732	      1.94776262	      3.56837466	      2.31594455	    -12.11339317	      5.61564186	    -15.99933358	      6.74182206	     16.23362690	     -0.81840976	     -6.76170369	    -63.18369380	      2.42734297	    -15.40785179	      2.46974739	     -5.53776339	     -1.39834423	      5.20383596
      0.72350000	      2.73346189	      1.63338856	     -0.48677617	     -0.40681455	      1.02877182	      0.27856219	      1.51199211	      3.42482805	      2.39875895	    -11.80816397	      5.72567959	    -15.81340584	      6.75658203	     16.66432511	     -0.71459840	     -6.89651763	    -62.41405734	      2.66334394	    -15.22727757	      2.41364836	     -5.53716405	     -1.50696615	      5.48298538
      0.72766667	      2.70148296	      1.73466808	     -0.67889178	     -0.40166157	      1.02912213	      0.27874381	      1.08193739	      3.28926920	      2.47276032	    -11.50279680	      5.83715346	    -15.62061854	      6.77266334	     17.08678252	     -0.62163000	     -7.02339157	    -61.59775178	      2.90345117	    -15.00690575	      2.37060690	     -5.53267238	     -1.59916961	      5.76608508
      0.73183333	      2.66605750	      1.83278221	     -0.87090871	     -0.39650426	      1.02943959	      0.27891322	      0.65573533	      3.15439898	      2.54888383	    -11.19592149	      5.94429738	    -15.43119593	      6.78986280	     17.49413372	     -0.53089351	     -7.14571450	    -60.72344069	      3.12815543	    -14.76961389	      2.33732796	     -5.52367576	     -1.68836905	      6.04981158
      0.73600000	      2.64780410	      1.93114567	     -1.06298836	     -0.39134483	      1.02973250	      0.27907332	      0.21102032	      3.01604434	      2.61710898	    -10.88751127	      6.05697626	    -15.24052641	      6.80720666	     17.86407175	     -0.44089868	     -7.26897496	    -59.79467245	      3.34219600	    -14.50547599	      2.31616139	     -5.53361035	     -1.77924710	      6.32098267
      0.74016667	      2.63343945	      2.01343899	     -1.25006801	     -0.38618311	      1.02999160	      0.27922262	     -0.24152594	      2.89396606	      2.68825082	    -10.57053860	      6.15948171	    -15.06350526	      6.82435140	     18.21389789	     -0.36866006	     -7.38422983	    -58.81901693	      3.54864079	    -14.22068537	      2.30513544	     -5.54827982	     -1.84892534	      6.59202116
      0.74433333	      2.58783362	      2.09209167	     -1.43412200	     -0.38101988	      1.03014265	      0.27935106	     -0.65365761	      2.77432148	      2.76005671	    -10.26672612	      6.26476089	    -14.89116321	      6.84152623	     18.58294840	     -0.29992467	     -7.49617342	    -57.80085538	      3.74690509	    -13.91510514	      2.30258475	     -5.52912574	     -1.91403760	      6.86177119
